<?xml version="1.0" encoding="UTF-8" standalone="no"?>
<!-- Created with Inkscape (http://www.inkscape.org/) -->

<svg
   width="256"
   height="256"
   viewBox="0 0 256 256"
   version="1.1"
   id="svg5"
   xmlns="http://www.w3.org/2000/svg"><defs
     id="defs2" /><g
     id="layer1"><circle
       style="opacity:1;fill:#252525;fill-opacity:1;stroke-width:0.132291"
       id="path1398"
       cx="63.126663"
       cy="55.852161"
       r="12.8"
       transform="matrix(9.7891613,0,0,9.7891613,-489.43561,-418.29432)" /><path
       style="opacity:1;fill:#248cff;fill-opacity:1;stroke-width:0.109332"
       d="m 74.050251,58.709785 c -0.194417,0.15141 -1.840422,0.28663 -2.227904,0.17138 -0.387483,-0.11526 -2.142212,-4.3487 -8.001171,-6.75868 -5.858955,-2.41 -10.871735,1.40315 -10.871735,1.40315 0,0 1.911289,-2.94852 5.591177,-3.63106 3.679891,-0.68253 6.148156,-0.22493 6.148156,-0.22493 0,0 3.477528,0.36418 6.758685,2.33501 3.281155,1.97083 2.797208,6.55373 2.602792,6.70513 z"
       id="path480-1"
       transform="matrix(9.7891613,0,0,9.7891613,-489.43561,-418.29432)" /><path
       style="opacity:1;fill:#1568c6;fill-opacity:1;stroke-width:0.109332"
       d="m 55.535222,60.721385 c -0.11931,0.0982 -2.14277,0.21757 -2.332754,0.12119 -0.189982,-0.0964 -1.436863,-0.76994 -1.484478,-3.09015 -0.04761,-2.32021 0.97604,-3.78724 1.060342,-3.87781 0.0843,-0.0906 2.120684,-1.3936 4.877572,-2.04495 2.756892,-0.65135 5.665256,0.40898 5.665256,0.40898 0,0 -3.079582,1.89269 -4.241366,2.96896 -1.161784,1.07628 -2.175604,2.46725 -2.726595,3.42339 -0.550991,0.95615 -0.698668,1.9922 -0.817977,2.09039 z"
       id="path529-8"
       transform="matrix(9.7891613,0,0,9.7891613,-489.43561,-418.29432)" /></g></svg>
